<?xml version="1.0" standalone="no"?>
<!DOCTYPE svg PUBLIC "-//W3C//DTD SVG 20010904//EN"
 "http://www.w3.org/TR/2001/REC-SVG-20010904/DTD/svg10.dtd">
<svg version="1.0" xmlns="http://www.w3.org/2000/svg"
 width="512.000000pt" height="512.000000pt" viewBox="0 0 512.000000 512.000000"
 preserveAspectRatio="xMidYMid meet">
<metadata>
Created by potrace 1.14, written by Peter Selinger 2001-2017
</metadata>
<g transform="translate(0.000000,512.000000) scale(0.100000,-0.100000)"
fill="#000000" stroke="none">
<path d="M933 3077 c-391 -353 -711 -647 -710 -653 2 -13 1416 -1244 1429
-1244 4 0 8 114 8 254 l0 254 -52 50 c-29 27 -217 197 -418 377 -201 180 -366
330 -368 334 -1 4 187 175 418 381 l420 375 0 258 c0 141 -3 257 -7 257 -5 0
-328 -289 -720 -643z"/>
<path d="M3460 3463 l0 -258 420 -375 c231 -206 419 -377 418 -381 -2 -4 -167
-154 -368 -334 -201 -180 -389 -350 -417 -377 l-53 -50 0 -254 c0 -140 4 -254
8 -254 13 0 1427 1231 1429 1244 2 10 -1405 1287 -1427 1294 -7 3 -10 -82 -10
-255z"/>
<path d="M3056 2833 c-3 -4 -6 -24 -6 -45 l0 -38 65 0 65 0 0 -235 0 -235 -65
0 -65 0 0 -40 0 -40 190 0 190 0 0 40 0 40 -65 0 -65 0 -2 278 -3 277 -116 2
c-64 1 -119 -1 -123 -4z"/>
<path d="M1727 2669 c-69 -40 -65 -221 6 -261 12 -7 69 -15 126 -18 102 -5
105 -6 113 -31 5 -16 5 -37 -1 -52 l-11 -27 -135 0 -135 0 0 -40 0 -40 159 0
c156 0 160 1 189 25 51 43 62 144 25 218 -21 42 -68 57 -173 57 -87 0 -91 1
-102 25 -8 19 -8 31 0 50 11 25 13 25 137 25 l125 0 0 40 0 40 -152 0 c-85 0
-161 -5 -171 -11z"/>
<path d="M2187 2669 c-38 -22 -50 -69 -52 -196 -3 -167 5 -210 44 -245 31 -28
32 -28 171 -28 l140 0 0 40 0 40 -103 0 c-67 0 -107 4 -115 12 -7 7 -12 34
-12 60 l0 48 101 0 c55 0 109 5 120 10 65 35 66 224 1 259 -26 14 -271 14
-295 0z m227 -85 c3 -9 6 -33 6 -54 0 -49 -18 -60 -99 -60 l-61 0 0 53 c0 29
5 58 12 65 19 19 134 16 142 -4z"/>
<path d="M2642 2643 l3 -38 103 -3 c100 -3 103 -3 112 -28 23 -60 20 -62 -96
-66 -105 -3 -106 -3 -134 -35 -51 -56 -60 -143 -24 -215 27 -54 44 -58 221
-58 l163 0 0 188 c0 103 -5 204 -10 224 -18 62 -35 68 -198 68 l-143 0 3 -37z
m223 -291 l0 -67 -69 -3 c-38 -2 -73 1 -79 7 -11 11 -14 107 -3 118 9 9 103
20 131 15 18 -3 20 -11 20 -70z"/>
</g>
</svg>
